# Blender 4.5.3 LTS
# www.blender.org
mtllib fonar.mtl
o Cube.001
v -0.515182 10.394812 0.515182
v -0.044050 11.605188 0.044050
v -0.515182 10.394812 -0.515182
v -0.044050 11.605188 -0.044050
v 0.515182 10.394812 0.515182
v 0.044050 11.605188 0.044050
v 0.515182 10.394812 -0.515182
v 0.044050 11.605188 -0.044050
v -0.605189 10.567722 0.605189
v -0.546144 10.740633 0.546144
v -0.605189 10.913545 0.605189
v -0.549559 11.086455 0.549559
v -0.605189 11.259367 0.605189
v -0.512424 11.432278 0.512424
v -0.512424 11.432278 -0.512424
v -0.605189 11.259367 -0.605189
v -0.549559 11.086455 -0.549559
v -0.605189 10.913545 -0.605189
v -0.546144 10.740633 -0.546144
v -0.605189 10.567722 -0.605189
v 0.512424 11.432278 -0.512424
v 0.605189 11.259367 -0.605189
v 0.549559 11.086455 -0.549559
v 0.605189 10.913545 -0.605189
v 0.546144 10.740633 -0.546144
v 0.605189 10.567722 -0.605189
v 0.512424 11.432278 0.512424
v 0.605189 11.259367 0.605189
v 0.549559 11.086455 0.549559
v 0.605189 10.913545 0.605189
v 0.546144 10.740633 0.546144
v 0.605189 10.567722 0.605189
v 0.179322 11.268578 -0.199563
v 0.312729 0.345513 -0.348029
v 0.179322 11.268578 0.199563
v 0.312729 0.345513 0.348029
v -0.179322 11.268578 -0.199563
v -0.312729 0.345513 -0.348029
v -0.179322 11.268578 0.199563
v -0.312729 0.345513 0.348029
v 0.254683 6.604094 -0.283431
v -0.254683 6.604094 0.283431
v 0.254683 6.604094 0.283431
v -0.254683 6.604094 -0.283431
v -0.254683 8.805763 0.283431
v 0.254683 8.805763 -0.283431
v 0.254683 8.805763 0.283431
v -0.254683 8.805763 -0.283431
vn -0.3463 0.9381 -0.0000
vn -0.0000 0.9381 -0.3463
vn 0.3463 0.9381 -0.0000
vn -0.0000 0.9381 0.3463
vn -0.0000 -1.0000 -0.0000
vn -0.0000 1.0000 -0.0000
vn -0.0000 -0.4617 0.8870
vn -0.0000 0.3232 0.9463
vn -0.0000 -0.3232 0.9463
vn -0.0000 0.3063 0.9519
vn -0.0000 -0.3063 0.9519
vn -0.0000 0.4728 0.8812
vn 0.8870 -0.4617 -0.0000
vn 0.9463 0.3232 -0.0000
vn 0.9463 -0.3232 -0.0000
vn 0.9519 0.3063 -0.0000
vn 0.9519 -0.3063 -0.0000
vn 0.8812 0.4728 -0.0000
vn -0.0000 -0.4617 -0.8870
vn -0.0000 0.3232 -0.9463
vn -0.0000 -0.3232 -0.9463
vn -0.0000 0.3063 -0.9519
vn -0.0000 -0.3063 -0.9519
vn -0.0000 0.4728 -0.8812
vn -0.8870 -0.4617 -0.0000
vn -0.9463 0.3232 -0.0000
vn -0.9463 -0.3232 -0.0000
vn -0.9519 0.3063 -0.0000
vn -0.9519 -0.3063 -0.0000
vn -0.8812 0.4728 -0.0000
vn -0.0000 0.0340 0.9994
vn -0.9995 0.0306 -0.0000
vn 0.9995 0.0306 -0.0000
vn -0.0000 0.0340 -0.9994
vn -0.0000 0.0103 -0.9999
vn 1.0000 0.0093 -0.0000
vn -1.0000 0.0093 -0.0000
vn -0.0000 0.0103 0.9999
vn -0.0000 -0.0000 -1.0000
vn 1.0000 -0.0000 -0.0000
vn -1.0000 -0.0000 -0.0000
vn -0.0000 -0.0000 1.0000
vt 0.589286 0.000000
vt 0.625000 0.000000
vt 0.625000 0.250000
vt 0.589286 0.250000
vt 0.625000 0.500000
vt 0.589286 0.500000
vt 0.625000 0.750000
vt 0.589286 0.750000
vt 0.625000 1.000000
vt 0.589286 1.000000
vt 0.125000 0.500000
vt 0.375000 0.500000
vt 0.375000 0.750000
vt 0.125000 0.750000
vt 0.875000 0.500000
vt 0.875000 0.750000
vt 0.410714 0.750000
vt 0.410714 1.000000
vt 0.375000 1.000000
vt 0.446429 0.750000
vt 0.446429 1.000000
vt 0.482143 0.750000
vt 0.482143 1.000000
vt 0.517857 0.750000
vt 0.517857 1.000000
vt 0.553571 0.750000
vt 0.553571 1.000000
vt 0.410714 0.500000
vt 0.446429 0.500000
vt 0.482143 0.500000
vt 0.517857 0.500000
vt 0.553571 0.500000
vt 0.375000 0.250000
vt 0.410714 0.250000
vt 0.446429 0.250000
vt 0.482143 0.250000
vt 0.517857 0.250000
vt 0.553571 0.250000
vt 0.375000 0.000000
vt 0.410714 0.000000
vt 0.446429 0.000000
vt 0.482143 0.000000
vt 0.517857 0.000000
vt 0.553571 0.000000
vt 0.574375 0.750000
vt 0.574375 1.000000
vt 0.574375 0.000000
vt 0.574375 0.250000
vt 0.574375 0.500000
vt 0.512500 0.250000
vt 0.512500 0.500000
vt 0.512500 0.750000
vt 0.512500 0.000000
vt 0.512500 1.000000
s 0
usemtl Material.001
f 14/1/1 2/2/1 4/3/1 15/4/1
f 15/4/2 4/3/2 8/5/2 21/6/2
f 21/6/3 8/5/3 6/7/3 27/8/3
f 27/8/4 6/7/4 2/9/4 14/10/4
f 3/11/5 7/12/5 5/13/5 1/14/5
f 8/5/6 4/15/6 2/16/6 6/7/6
f 5/13/7 32/17/7 9/18/7 1/19/7
f 32/17/8 31/20/8 10/21/8 9/18/8
f 31/20/9 30/22/9 11/23/9 10/21/9
f 30/22/10 29/24/10 12/25/10 11/23/10
f 29/24/11 28/26/11 13/27/11 12/25/11
f 28/26/12 27/8/12 14/10/12 13/27/12
f 7/12/13 26/28/13 32/17/13 5/13/13
f 26/28/14 25/29/14 31/20/14 32/17/14
f 25/29/15 24/30/15 30/22/15 31/20/15
f 24/30/16 23/31/16 29/24/16 30/22/16
f 23/31/17 22/32/17 28/26/17 29/24/17
f 22/32/18 21/6/18 27/8/18 28/26/18
f 3/33/19 20/34/19 26/28/19 7/12/19
f 20/34/20 19/35/20 25/29/20 26/28/20
f 19/35/21 18/36/21 24/30/21 25/29/21
f 18/36/22 17/37/22 23/31/22 24/30/22
f 17/37/23 16/38/23 22/32/23 23/31/23
f 16/38/24 15/4/24 21/6/24 22/32/24
f 1/39/25 9/40/25 20/34/25 3/33/25
f 9/40/26 10/41/26 19/35/26 20/34/26
f 10/41/27 11/42/27 18/36/27 19/35/27
f 11/42/28 12/43/28 17/37/28 18/36/28
f 12/43/29 13/44/29 16/38/29 17/37/29
f 13/44/30 14/1/30 15/4/30 16/38/30
usemtl Material
f 33/5/6 37/15/6 39/16/6 35/7/6
f 47/45/31 35/7/31 39/9/31 45/46/31
f 45/47/32 39/2/32 37/3/32 48/48/32
f 38/11/5 34/12/5 36/13/5 40/14/5
f 46/49/33 33/5/33 35/7/33 47/45/33
f 48/48/34 37/3/34 33/5/34 46/49/34
f 38/33/35 44/50/35 41/51/35 34/12/35
f 34/12/36 41/51/36 43/52/36 36/13/36
f 40/39/37 42/53/37 44/50/37 38/33/37
f 36/13/38 43/52/38 42/54/38 40/19/38
f 44/50/39 48/48/39 46/49/39 41/51/39
f 41/51/40 46/49/40 47/45/40 43/52/40
f 42/53/41 45/47/41 48/48/41 44/50/41
f 43/52/42 47/45/42 45/46/42 42/54/42
